:SAMPLES-PER-SECOND 24
:FULLY-SPECIFIED
:DEGREES
350
root  -3.02396 36.2068 40.3142 169.015 69.6081 169.531
RightUpLeg  6.69287 -11.5834 -34.6416
RightLeg  19.8279 1.93088 0.909932
RightFoot  -7.72993 -0.966199 28.985
RightToes  -1.46203e-006 3.27826e-006 1.63871e-007
Spine  5.44697 2.35706 5.3884
Spine1  17.2334 5.22701 -7.89968
HEad  -29.9592 44.0632 -30.6076
LeftShoulder1  2.50227 -4.13672 -26.6393
LeftArm  14.0709 6.40305 -43.2653
LeftForeArm  48.9631 -76.5623 -47.9894
LeftHand  0.128833 6.03499 23.4764
RightShoulder  3.63603 5.97849 32.4644
RightArm  -4.9954 -1.64174 31.4591
RightForeArm  95.2551 79.397 101.021
RightHand  0.621167 -9.54195 -17.7626
LeftUpLeg  -21.9932 11.3643 15.7518
LeftLeg  34.9479 -5.00701 -3.37182
LeftFoot  -1.45881 1.98356 -22.4908
LeftToes  1.24767e-006 1.47042e-008 1.32732e-009
351
root  -2.79483 37.8512 37.9259 159.233 74.663 158.701
RightUpLeg  4.07095 -7.26022 -31.8138
RightLeg  17.4616 -9.56561 -3.56803
RightFoot  1.71841 -1.65664 14.505
RightToes  -1.46203e-006 3.27826e-006 1.63871e-007
Spine  2.58917 3.14988 6.44549
Spine1  16.8103 5.29128 -6.81904
HEad  -25.657 47.612 -32.5249
LeftShoulder1  2.55061 -4.15994 -27.1889
LeftArm  19.8359 13.477 -43.1726
LeftForeArm  74.3344 -79.5104 -72.4779
LeftHand  -0.110849 4.83857 22.2155
RightShoulder  3.60104 5.89822 32.4208
RightArm  -0.867218 -5.84779 32.2367
RightForeArm  114.971 77.0721 125.555
RightHand  0.345292 -9.00252 -12.0228
LeftUpLeg  -15.7072 15.3118 10.6271
LeftLeg  28.1621 -3.35891 -1.59978
LeftFoot  0.655397 2.12356 -20.069
LeftToes  1.24767e-006 1.47042e-008 1.32732e-009
352
root  -2.76285 39.6353 36.0104 134.762 76.0725 135.064
RightUpLeg  -1.56722 -15.2886 -29.527
RightLeg  31.0431 -0.806247 -0.623411
RightFoot  -0.442934 -1.01631 10.7303
RightToes  -1.46203e-006 3.27826e-006 1.63871e-007
Spine  3.03845 2.90798 5.69607
Spine1  16.4496 4.61977 -5.76914
HEad  -20.6152 51.4941 -33.286
LeftShoulder1  2.53922 -4.10272 -27.2919
LeftArm  22.4861 17.1085 -40.269
LeftForeArm  97.7466 -80.0365 -94.6143
LeftHand  -0.217028 4.19639 20.5313
RightShoulder  3.44467 5.77712 31.2286
RightArm  6.81854 -5.87523 33.7027
RightForeArm  126.035 76.8041 129.543
RightHand  0.0100965 -5.99235 -6.31019
LeftUpLeg  -7.89512 16.679 4.13796
LeftLeg  18.3854 -2.34227 -0.860277
LeftFoot  10.8163 3.44297 -17.6784
LeftToes  1.24767e-006 1.47042e-008 1.32732e-009
353
root  -3.02293 40.8046 34.5738 117.736 73.4974 117.743
RightUpLeg  -7.48634 -22.5558 -23.0772
RightLeg  43.5939 6.03735 5.7567
RightFoot  -4.32596 -0.980367 15.5625
RightToes  -1.46203e-006 3.27826e-006 1.63871e-007
Spine  4.27815 2.63028 5.68526
Spine1  15.2555 4.92238 -7.62515
HEad  -15.3321 52.9772 -30.7976
LeftShoulder1  2.424 -3.96843 -26.3146
LeftArm  23.85 15.257 -37.1083
LeftForeArm  102.989 -79.9468 -99.3899
LeftHand  -0.323863 3.40215 18.5661
RightShoulder  3.48464 5.9098 31.1249
RightArm  11.8081 -6.34053 33.5225
RightForeArm  135.604 76.3676 133.438
RightHand  -0.152207 -2.07056 -4.88901
LeftUpLeg  -8.40295 15.1967 -0.844422
LeftLeg  19.2335 -10.4897 -4.67822
LeftFoot  21.8521 7.40585 -24.6452
LeftToes  1.24767e-006 1.47042e-008 1.32732e-009
354
root  -3.33162 41.5759 33.0909 109.127 70.3385 108.348
RightUpLeg  -11.2755 -27.3513 -15.3248
RightLeg  43.4076 9.91155 9.56188
RightFoot  -5.41431 -1.11126 20.2644
RightToes  -1.46203e-006 3.27826e-006 1.63871e-007
Spine  6.03599 2.40899 8.151
Spine1  13.264 6.07107 -10.9225
HEad  -11.3324 52.3766 -28.2844
LeftShoulder1  2.35721 -3.86807 -25.8338
LeftArm  24.2389 10.8063 -34.5037
LeftForeArm  100.033 -79.9625 -97.205
LeftHand  -0.352003 3.23875 18.6836
RightShoulder  3.50582 6.01476 30.9401
RightArm  13.4774 -6.65059 33.338
RightForeArm  135.768 75.2294 137.22
RightHand  -0.108013 -2.7081 -4.09876
LeftUpLeg  -14.6941 16.6408 -3.61379
LeftLeg  32.975 -23.9006 -15.739
LeftFoot  22.8196 10.7389 -34.6043
LeftToes  1.24767e-006 1.47042e-008 1.32732e-009
355
root  -3.65554 41.8594 31.6679 99.8311 66.2359 98.8996
RightUpLeg  -11.7985 -29.4609 -10.9014
RightLeg  33.5664 11.7187 8.02424
RightFoot  0.391216 -1.75767 17.0176
RightToes  -1.46203e-006 3.27826e-006 1.63871e-007
Spine  8.15546 2.52266 8.69382
Spine1  12.6734 7.30104 -13.2582
HEad  -10.6776 50.7421 -28.6205
LeftShoulder1  2.38165 -3.94384 -25.8368
LeftArm  23.0993 6.77078 -32.9752
LeftForeArm  100.5 -79.8245 -99.4312
LeftHand  -0.344058 3.4717 20.486
RightShoulder  3.27816 5.86092 29.0766
RightArm  14.0637 -4.36109 34.7264
RightForeArm  134.706 74.731 138.462
RightHand  -0.0926805 -3.40792 -4.51676
LeftUpLeg  -20.8025 19.065 -3.84341
LeftLeg  50.7545 -18.362 -22.1329
LeftFoot  14.7129 8.46909 -35.9158
LeftToes  1.24767e-006 1.47042e-008 1.32732e-009
356
root  -4.0015 41.3784 30.3165 92.7395 60.3963 91.8356
RightUpLeg  -10.0068 -27.2929 -11.1905
RightLeg  22.2527 4.36048 1.927
RightFoot  5.19453 -0.214343 1.19433
RightToes  -1.46203e-006 3.27826e-006 1.63871e-007
Spine  9.72216 2.59846 7.38097
Spine1  12.9284 8.39854 -15.7941
HEad  -11.4013 49.075 -29.9624
LeftShoulder1  2.39122 -4.12752 -25.1664
LeftArm  21.2239 3.50173 -31.8521
LeftForeArm  104.739 -79.5029 -105.502
LeftHand  -0.413919 3.28653 22.5641
RightShoulder  2.95585 5.56164 26.5987
RightArm  13.8787 -0.32197 36.9088
RightForeArm  134.723 74.856 138.107
RightHand  -0.178229 -1.85436 -5.61891
LeftUpLeg  -26.8542 22.173 -1.62937
LeftLeg  67.2533 -6.77912 -16.8173
LeftFoot  7.74102 5.79474 -33.8879
LeftToes  1.24767e-006 1.47042e-008 1.32732e-009
357
root  -4.31479 40.4507 28.7248 89.2277 53.1862 86.7862
RightUpLeg  -11.4742 -24.9239 -16.8375
RightLeg  19.3645 -4.79361 -1.82391
RightFoot  -2.98461 0.954293 -14.1251
RightToes  -1.46203e-006 3.27826e-006 1.63871e-007
Spine  10.3727 2.12568 7.05461
Spine1  11.3519 9.01375 -20.1969
HEad  -10.7527 48.9616 -31.2073
LeftShoulder1  2.40131 -4.18431 -25.0609
LeftArm  19.2225 1.85678 -30.1828
LeftForeArm  111.511 -78.9259 -113.495
LeftHand  -0.360629 3.70073 24.5623
RightShoulder  2.6701 5.26762 24.3321
RightArm  13.5181 4.23396 38.913
RightForeArm  129.982 75.7229 134.436
RightHand  -0.237177 -1.00327 -6.20459
LeftUpLeg  -35.8001 25.4849 1.44277
LeftLeg  84.7691 -1.16289 -19.8023
LeftFoot  7.68582 5.82394 -34.0455
LeftToes  1.24767e-006 1.47042e-008 1.32732e-009
358
root  -4.82263 39.5226 26.768 87.6561 45.2534 81.8145
RightUpLeg  -20.4894 -30.3468 -24.4556
RightLeg  26.2285 -0.997332 -0.684202
RightFoot  -14.3401 -0.503548 -16.4043
RightToes  -1.46203e-006 3.27826e-006 1.63871e-007
Spine  10.4426 1.21386 7.24618
Spine1  9.14426 8.85644 -24.282
HEad  -12.7548 49.8172 -34.798
LeftShoulder1  2.46294 -4.01582 -26.6449
LeftArm  16.5297 1.68718 -28.7953
LeftForeArm  122.873 -77.5162 -125.526
LeftHand  -0.154865 4.695 25.4
RightShoulder  2.50296 5.07339 23.004
RightArm  12.7745 8.82755 38.2265
RightForeArm  127.902 76.0867 132.75
RightHand  -0.284855 -0.676148 -6.98309
LeftUpLeg  -42.7298 28.8821 6.77226
LeftLeg  98.0942 4.77443 -26.0934
LeftFoot  5.68114 5.74481 -37.3901
LeftToes  1.24767e-006 1.47042e-008 1.32732e-009
359
root  -5.23752 38.9865 24.9607 87.2846 37.8066 78.6957
RightUpLeg  -29.4877 -33.7266 -30.9476
RightLeg  32.1963 1.54456 0.798857
RightFoot  -17.6734 -0.965299 -15.1979
RightToes  -1.46203e-006 3.27826e-006 1.63871e-007
Spine  10.3325 -0.122409 5.9151
Spine1  9.08587 8.09323 -26.0784
HEad  -18.752 50.1825 -40.9058
LeftShoulder1  2.56217 -3.94309 -28.345
LeftArm  13.8061 1.05241 -28.5061
LeftForeArm  130.964 -76.0069 -133.725
LeftHand  -0.0964673 4.95362 24.8796
RightShoulder  2.58156 5.11446 23.8218
RightArm  9.96922 10.0914 34.9029
RightForeArm  131.298 75.0447 136.881
RightHand  -0.363307 -0.27003 -8.25544
LeftUpLeg  -39.953 28.9262 19.7256
LeftLeg  96.3952 4.3802 -28.7741
LeftFoot  2.55607 5.19417 -41.0323
LeftToes  1.24767e-006 1.47042e-008 1.32732e-009
360
root  -5.15502 38.9011 24.993 87.2745 32.0884 77.6555
RightUpLeg  -30.6688 -31.0428 -35.9714
RightLeg  30.8304 -3.10172 -2.22887
RightFoot  -17.9042 -1.10942 -17.0832
RightToes  -1.46203e-006 3.27826e-006 1.63871e-007
Spine  9.75628 -1.02643 1.37023
Spine1  9.90131 7.04197 -27.6781
HEad  -21.0328 51.1112 -45.6549
LeftShoulder1  2.67693 -4.06172 -29.3444
LeftArm  12.998 0.59801 -28.866
LeftForeArm  127.944 -76.4391 -131.434
LeftHand  -0.159887 4.65836 24.8148
RightShoulder  2.8395 5.36764 25.9756
RightArm  7.46037 5.22051 33.2063
RightForeArm  133.414 73.1694 142.21
RightHand  -0.397564 -0.418662 -9.28852
LeftUpLeg  -28.6049 23.2908 31.9924
LeftLeg  68.3299 -11.4804 -29.6887
LeftFoot  4.37246 5.74011 -40.153
LeftToes  1.24767e-006 1.47042e-008 1.32732e-009
361
root  -4.95545 38.9225 24.7548 87.3408 30.5876 76.9138
RightUpLeg  -30.0268 -26.04 -38.9993
RightLeg  29.8317 -7.18633 -4.67842
RightFoot  -19.0818 -1.23369 -16.2127
RightToes  -1.46203e-006 3.27826e-006 1.63871e-007
Spine  8.75945 -1.43473 0.581402
Spine1  10.2893 6.05896 -26.1911
HEad  -18.0857 52.6379 -46.2663
LeftShoulder1  2.77239 -4.10339 -30.4258
LeftArm  13.5556 1.23116 -28.7321
LeftForeArm  120.005 -77.3173 -125.79
LeftHand  -0.239289 4.26398 24.3031
RightShoulder  3.0976 5.64642 27.8906
RightArm  8.30383 -0.485062 33.2373
RightForeArm  137.025 70.5049 148.028
RightHand  -0.415089 -0.137789 -9.21262
LeftUpLeg  -12.2196 15.1807 37.8608
LeftLeg  21.1963 -21.5559 -8.46165
LeftFoot  4.25771 5.50599 -38.8932
LeftToes  1.24767e-006 1.47042e-008 1.32732e-009
362
root  -5.02054 39.1618 24.4386 88.1148 30.7791 77.7405
RightUpLeg  -28.5617 -24.0088 -40.1427
RightLeg  28.0086 -9.05075 -5.40629
RightFoot  -18.38 -1.08012 -15.4432
RightToes  -1.46203e-006 3.27826e-006 1.63871e-007
Spine  8.145 -1.41751 0.11235
Spine1  11.9989 5.68428 -23.7499
HEad  -16.5637 52.7974 -43.5872
LeftShoulder1  2.7122 -3.98675 -30.1848
LeftArm  13.4042 0.754592 -27.9258
LeftForeArm  123.438 -76.6515 -129.571
LeftHand  -0.276541 3.93288 21.5933
RightShoulder  3.26653 5.84675 29.0033
RightArm  11.0161 -0.718413 33.4816
RightForeArm  142.654 68.147 152.323
RightHand  -0.435929 0.986606 -8.0699
LeftUpLeg  -11.3465 23.6566 36.6515
LeftLeg  13.9451 -22.6239 -5.50092
LeftFoot  4.66204 5.79775 -39.8936
LeftToes  1.24767e-006 1.47042e-008 1.32732e-009
363
root  -5.23358 39.5744 24.1948 88.5739 32.7643 80.2952
RightUpLeg  -24.6284 -24.6757 -39.4845
RightLeg  24.464 -10.989 -5.62696
RightFoot  -15.9405 -0.761751 -16.177
RightToes  -1.46203e-006 3.27826e-006 1.63871e-007
Spine  9.04437 -0.853933 1.82037
Spine1  14.2264 6.75936 -23.3638
HEad  -15.6989 52.4707 -40.1018
LeftShoulder1  2.49523 -3.85423 -27.8364
LeftArm  12.686 -0.211247 -26.8243
LeftForeArm  134.318 -74.8767 -137.996
LeftHand  -0.223205 4.07415 19.0748
RightShoulder  3.22452 5.88403 28.4005
RightArm  12.7377 0.524416 36.564
RightForeArm  146.144 68.0335 152.909
RightHand  -0.472458 1.59636 -8.00703
LeftUpLeg  -24.6735 33.3533 29.7674
LeftLeg  50.091 -19.4548 -22.789
LeftFoot  2.12947 4.83419 -39.5199
LeftToes  1.24767e-006 1.47042e-008 1.32732e-009
